<svg xmlns="http://www.w3.org/2000/svg"  viewBox="0 0 512 512" width="64px" height="64px"><path fill="#008593" d="M7.9,256C7.9,119,119,7.9,256,7.9C393,7.9,504.1,119,504.1,256c0,137-111.1,248.1-248.1,248.1C119,504.1,7.9,393,7.9,256z"/><path fill="#FFC50B" d="M112.8 247.1c-.2-.7-.8-1.2-1.6-1.3l-24.9-3.6-11.1-22.5c-.6-1.3-2.8-1.3-3.5 0l-11.1 22.5-24.9 3.6c-.7.1-1.3.6-1.6 1.3-.2.7 0 1.5.5 2l18 17.5-4.2 24.8c-.1.7.2 1.5.8 1.9.6.4 1.4.5 2 .1l22.2-11.7 22.3 11.7c.3.1.6.2.9.2.4 0 .8-.1 1.1-.4.6-.4.9-1.2.8-1.9l-4.2-24.8 18-17.5C112.8 248.5 113 247.8 112.8 247.1zM204.1 247.1c-.2-.7-.8-1.2-1.6-1.3l-24.9-3.6-11.1-22.5c-.6-1.3-2.8-1.3-3.5 0l-11.1 22.5-24.9 3.6c-.7.1-1.3.6-1.6 1.3-.2.7 0 1.5.5 2l18 17.5-4.3 24.8c-.1.7.2 1.5.8 1.9.6.4 1.4.5 2 .1l22.3-11.7 22.2 11.7c.3.1.6.2.9.2.4 0 .8-.1 1.1-.4.6-.4.9-1.2.8-1.9l-4.2-24.8 18-17.5C204.1 248.5 204.3 247.8 204.1 247.1zM296.3 247.1c-.2-.7-.8-1.2-1.6-1.3l-24.9-3.6-11.1-22.5c-.6-1.3-2.8-1.3-3.5 0l-11.1 22.5-24.9 3.6c-.7.1-1.3.6-1.6 1.3-.2.7 0 1.5.5 2l18 17.5-4.3 24.8c-.1.7.2 1.5.8 1.9.6.4 1.4.5 2 .1l22.3-11.7 22.3 11.7c.3.1.6.2.9.2.4 0 .8-.1 1.1-.4.6-.4.9-1.2.8-1.9l-4.2-24.8 18-17.5C296.3 248.5 296.5 247.8 296.3 247.1zM385.7 247.1c-.2-.7-.8-1.2-1.6-1.3l-24.9-3.6-11.1-22.5c-.7-1.3-2.8-1.3-3.5 0l-11.1 22.5-24.9 3.6c-.7.1-1.3.6-1.6 1.3-.2.7 0 1.5.5 2l18 17.5-4.3 24.8c-.1.7.2 1.5.8 1.9.6.4 1.4.5 2 .1l22.3-11.7 22.2 11.7c.3.1.6.2.9.2.4 0 .8-.1 1.1-.4.6-.4.9-1.2.8-1.9l-4.2-24.8 18-17.5C385.7 248.5 385.9 247.8 385.7 247.1zM476.9 247.1c-.2-.7-.8-1.2-1.6-1.3l-24.9-3.6-11.1-22.5c-.6-1.3-2.8-1.3-3.5 0l-11.1 22.5-24.9 3.6c-.7.1-1.3.6-1.6 1.3-.2.7 0 1.5.5 2l18 17.5-4.2 24.8c-.1.7.2 1.5.8 1.9.6.4 1.4.5 2 .1l22.3-11.7 22.3 11.7c.3.1.6.2.9.2.4 0 .8-.1 1.1-.4.6-.4.9-1.2.8-1.9l-4.2-24.8 18-17.5C477 248.5 477.1 247.8 476.9 247.1z"/></svg>