<svg fill="#000000" xmlns="http://www.w3.org/2000/svg"  viewBox="0 0 64 64" width="64px" height="64px"><path d="M 7 6 C 5.347656 6 4 7.347656 4 9 L 4 55 C 4 56.652344 5.347656 58 7 58 L 57 58 C 58.652344 58 60 56.652344 60 55 L 60 9 C 60 7.347656 58.652344 6 57 6 Z M 7 8 L 57 8 C 57.550781 8 58 8.449219 58 9 L 58 55 C 58 55.550781 57.550781 56 57 56 L 7 56 C 6.449219 56 6 55.550781 6 55 L 6 9 C 6 8.449219 6.449219 8 7 8 Z M 30 14 C 21.730469 14 15 20.730469 15 29 C 15 37.269531 21.730469 44 30 44 C 32.769531 44 35.355469 43.230469 37.582031 41.917969 C 37.613281 41.898438 37.800781 42.042969 37.878906 42.121094 L 42.464844 46.707031 C 43.210938 47.453125 44.191406 47.828125 45.171875 47.828125 C 46.152344 47.828125 47.132813 47.453125 47.878906 46.707031 C 48.601563 45.984375 49 45.023438 49 44 C 49 42.976563 48.601563 42.015625 47.878906 41.292969 L 43.292969 36.707031 C 43.199219 36.613281 43.027344 36.398438 43.046875 36.363281 C 44.285156 34.1875 45 31.679688 45 29 C 45 20.730469 38.269531 14 30 14 Z M 30 16 C 37.167969 16 43 21.832031 43 29 C 43 36.167969 37.167969 42 30 42 C 22.832031 42 17 36.167969 17 29 C 17 21.832031 22.832031 16 30 16 Z M 30.085938 18 C 24.066406 18 19.171875 22.894531 19.171875 28.914063 C 19.171875 34.933594 24.066406 39.828125 30.085938 39.828125 C 36.105469 39.828125 41 34.933594 41 28.914063 C 41 22.894531 36.105469 18 30.085938 18 Z M 30.085938 20 C 35 20 39 24 39 28.914063 C 39 33.828125 35 37.828125 30.085938 37.828125 C 25.171875 37.828125 21.171875 33.828125 21.171875 28.914063 C 21.171875 24 25.171875 20 30.085938 20 Z M 30.085938 21.828125 C 29.535156 21.828125 29.085938 22.273438 29.085938 22.828125 C 29.085938 23.378906 29.535156 23.828125 30.085938 23.828125 C 32.128906 23.828125 33.964844 25.039063 34.765625 26.921875 C 34.929688 27.300781 35.300781 27.527344 35.6875 27.527344 C 35.820313 27.527344 35.949219 27.503906 36.078125 27.449219 C 36.585938 27.230469 36.824219 26.644531 36.609375 26.136719 C 35.492188 23.519531 32.929688 21.828125 30.085938 21.828125 Z M 41.878906 38.121094 L 46.464844 42.707031 C 46.8125 43.054688 47 43.511719 47 44 C 47 44.488281 46.8125 44.945313 46.464844 45.292969 C 45.75 46.007813 44.59375 46.007813 43.878906 45.292969 L 39.316406 40.734375 C 40.277344 39.96875 41.132813 39.089844 41.878906 38.121094 Z M 9 50 C 8.449219 50 8 50.449219 8 51 L 8 53 C 8 53.550781 8.449219 54 9 54 C 9.550781 54 10 53.550781 10 53 L 10 51 C 10 50.449219 9.550781 50 9 50 Z M 14 50 C 13.449219 50 13 50.449219 13 51 L 13 53 C 13 53.550781 13.449219 54 14 54 C 14.550781 54 15 53.550781 15 53 L 15 51 C 15 50.449219 14.550781 50 14 50 Z M 19 50 C 18.449219 50 18 50.449219 18 51 L 18 53 C 18 53.550781 18.449219 54 19 54 C 19.550781 54 20 53.550781 20 53 L 20 51 C 20 50.449219 19.550781 50 19 50 Z M 24 50 C 23.449219 50 23 50.449219 23 51 L 23 53 C 23 53.550781 23.449219 54 24 54 C 24.550781 54 25 53.550781 25 53 L 25 51 C 25 50.449219 24.550781 50 24 50 Z M 29 50 C 28.449219 50 28 50.449219 28 51 L 28 53 C 28 53.550781 28.449219 54 29 54 C 29.550781 54 30 53.550781 30 53 L 30 51 C 30 50.449219 29.550781 50 29 50 Z M 34 50 C 33.449219 50 33 50.449219 33 51 L 33 53 C 33 53.550781 33.449219 54 34 54 C 34.550781 54 35 53.550781 35 53 L 35 51 C 35 50.449219 34.550781 50 34 50 Z M 39 50 C 38.449219 50 38 50.449219 38 51 L 38 53 C 38 53.550781 38.449219 54 39 54 C 39.550781 54 40 53.550781 40 53 L 40 51 C 40 50.449219 39.550781 50 39 50 Z M 44 50 C 43.449219 50 43 50.449219 43 51 L 43 53 C 43 53.550781 43.449219 54 44 54 C 44.550781 54 45 53.550781 45 53 L 45 51 C 45 50.449219 44.550781 50 44 50 Z M 49 50 C 48.449219 50 48 50.449219 48 51 L 48 53 C 48 53.550781 48.449219 54 49 54 C 49.550781 54 50 53.550781 50 53 L 50 51 C 50 50.449219 49.550781 50 49 50 Z M 54 50 C 53.449219 50 53 50.449219 53 51 L 53 53 C 53 53.550781 53.449219 54 54 54 C 54.550781 54 55 53.550781 55 53 L 55 51 C 55 50.449219 54.550781 50 54 50 Z"/></svg>